REM Created with Helium Audio Joiner - www.imploded.com
FILE "test_1.EqualTempera.20170609_121232.base-262.wav" WAV
  TRACK 01 AUDIO
    PERFORMER ""
    TITLE ""
    INDEX 01 00:00:00
  TRACK 02 AUDIO
    PERFORMER ""
    TITLE ""
    INDEX 01 00:02:00
  TRACK 03 AUDIO
    PERFORMER ""
    TITLE ""
    INDEX 01 00:04:00
  TRACK 04 AUDIO
    PERFORMER ""
    TITLE ""
    INDEX 01 00:06:00
  TRACK 05 AUDIO
    PERFORMER ""
    TITLE ""
    INDEX 01 00:08:00
  TRACK 06 AUDIO
    PERFORMER ""
    TITLE ""
    INDEX 01 00:10:00
  TRACK 07 AUDIO
    PERFORMER ""
    TITLE ""
    INDEX 01 00:12:00
  TRACK 08 AUDIO
    PERFORMER ""
    TITLE ""
    INDEX 01 00:14:00
